<?xml version="1.0" encoding="UTF-8" standalone="no"?>
<!-- Created with Inkscape (http://www.inkscape.org/) -->

<svg
   width="1017.9305"
   height="1023.1505"
   viewBox="0 0 1017.9305 1023.1505"
   version="1.1"
   id="svg5"
   xmlns:xlink="http://www.w3.org/1999/xlink"
   xmlns="http://www.w3.org/2000/svg"
   xmlns:svg="http://www.w3.org/2000/svg">
  <defs
     id="defs2">
    <linearGradient
       id="swatch12">
      <stop
         style="stop-color:#ffffff;stop-opacity:1;"
         offset="0"
         id="stop12" />
    </linearGradient>
    <linearGradient
       id="swatch11">
      <stop
         style="stop-color:#000000;stop-opacity:1;"
         offset="0"
         id="stop11" />
    </linearGradient>
    <linearGradient
       id="swatch10">
      <stop
         style="stop-color:#12b890;stop-opacity:1;"
         offset="0"
         id="stop10" />
    </linearGradient>
    <linearGradient
       xlink:href="#swatch10"
       id="linearGradient10"
       x1="-73.05101"
       y1="477.8317"
       x2="944.87946"
       y2="477.8317"
       gradientUnits="userSpaceOnUse"
       gradientTransform="translate(0.00115616,-0.00198513)" />
  </defs>
  <g
     id="g2"
     style="display:none"
     transform="translate(-0.00115616,0.00198513)">
    <path
       id="path2"
       style="color:#000000;display:inline;fill:url(#linearGradient10);stroke-linecap:round;stroke-linejoin:round;-inkscape-stroke:none"
       d="m 439.00643,-33.743493 a 50.005,50.005 0 0 0 -43.93164,26.0156249 c 0,0 -114.5176,209.5260181 -229.53906,420.5644581 -57.51078,105.5192 -115.14705,211.41477 -158.681644,291.73046 -21.767297,40.15784 -40.00416,73.91191 -52.976563,98.09961 -6.486198,12.09387 -11.647229,21.77766 -15.341796,28.80469 -1.847287,3.51354 -3.31754,6.33848 -4.498047,8.66406 -0.590255,1.1628 -1.09835,2.17765 -1.652344,3.33203 -0.553995,1.15442 -0.609488,0.16556 -2.892578,7.04688 a 50,50 0 0 0 31.710937,63.20117 50,50 0 0 0 63.201172,-31.71094 c -0.817654,2.46445 -1.056662,3.0068 -1.320312,3.64258 0.06347,-0.12612 0.05,-0.10418 0.123047,-0.24804 0.78574,-1.54792 2.114243,-4.10853 3.839843,-7.39063 3.451204,-6.56415 8.536984,-16.11127 14.955078,-28.07812 12.836197,-23.93378 31.036386,-57.61776 52.767579,-97.70899 4.321721,-7.97301 11.180008,-20.53312 15.767578,-28.98828 a 54.782205,49.99995 0 0 0 5.15039,0.74414 h 80.10938 l 20.04492,-100 H 164.52596 C 194.29602,569.23796 221.13933,519.77573 253.34041,460.69401 346.29544,290.14255 406.77437,179.5054 438.85799,120.7858 l 273.4961,503.19141 H 662.0533 l 20.04493,100 h 74.83203 a 54.782205,49.99995 0 0 0 9.36914,-0.75 l 90.71875,166.9082 a 50,50 0 0 0 67.80664,20.05469 50,50 0 0 0 20.05469,-67.80859 l -462,-850.0078156 A 50.005,50.005 0 0 0 439.00643,-33.743493 Z M 420.56502,184.36198 258.94588,481.84049 169.90487,926.08463 a 49.999966,54.782225 12.601282 0 0 38.30664,63.32227 49.999966,54.782225 12.601282 0 0 59.83594,-44.10352 z m 36.76563,0 152.51758,760.9414 a 54.782225,49.999966 77.398718 0 0 59.83593,44.10352 54.782225,49.999966 77.398718 0 0 38.30664,-63.32227 L 618.94979,481.84049 Z m -110.60547,439.61523 -20.04297,100 h 224.18945 l -20.04492,-100 z"
       transform="translate(73.052164,33.74154)" />
  </g>
</svg>
